<svg id="Layer_1" xmlns="http://www.w3.org/2000/svg" viewBox="0 0 1205 252.3"><style>.st0{fill:#192743}</style><path class="st0" d="M87.8 149C43.7 151.8 7.2 115.3 10 71.2c2.3-36.5 31.8-66 68.3-68.3 44.1-2.8 80.6 33.7 77.8 77.8-2.3 36.5-31.8 66-68.3 68.3zm-1-107.2c-21.9-2.3-40.2 16-37.9 37.9 1.7 15.9 14.5 28.7 30.4 30.4 21.9 2.3 40.2-16 37.9-37.9-1.7-15.9-14.5-28.7-30.4-30.4z"/><path class="st0" d="M86.6 150.6c-44 2-80.2-34.2-78.2-78.2C10.2 34 41.2 3 79.6 1.2c44-2 80.2 34.2 78.2 78.2-1.8 38.4-32.9 69.5-71.2 71.2zM87.7 4.5c-43.2-2.8-78.9 33-76.2 76.2 2.3 35.7 31.1 64.5 66.8 66.8 43.2 2.8 78.9-33 76.1-76.1-2.2-35.8-31-64.6-66.7-66.9zm-.8 107.2c-22.9 2.4-42-16.8-39.6-39.6 1.8-16.7 15.2-30 31.8-31.8 22.9-2.4 42 16.8 39.6 39.6-1.7 16.6-15.1 30-31.8 31.8zm-.3-68.3c-20.8-2.3-38.4 15.2-36.1 36.1 1.6 15.2 13.8 27.4 29 29 20.9 2.2 38.3-15.3 36.1-36.1-1.6-15.2-13.8-27.4-29-29zM0 211.2v21l31.7-19.7-30 4.5M312.3 35.8v29h-56.7v33.7h50v29h-50v36.4h56.7v29h-94.9V35.8h94.9zm78.4 32.6v31.7h-15.9V193h-38.2v-92.9H325V68.4h11.6v-4.7c0-15.8 4.2-27.3 12.6-34.6s21.6-10.9 39.6-10.9v32.4c-5.1 0-8.7 1-10.8 2.9-2.2 1.9-3.2 5.4-3.2 10.3v4.7h15.9v-.1zm78.6 0v31.7h-15.9V193h-38.2v-92.9h-11.6V68.4h11.6v-4.7c0-15.8 4.2-27.3 12.6-34.6s21.6-10.9 39.6-10.9v32.4c-5.1 0-8.7 1-10.8 2.9-2.2 1.9-3.2 5.4-3.2 10.3v4.7h15.9v-.1zm69 126.1c-18.2 0-33-5.8-44.7-17.5-11.6-11.7-17.4-27.2-17.4-46.6 0-19.3 5.8-34.8 17.3-46.2C505 72.7 520 67 538.3 67s33.5 5.7 45.5 17c12.1 11.3 18.1 27 18.1 47.1 0 4.3-.3 8.3-.9 12.1h-85.7c.7 5.5 3.2 10 7.4 13.5s8.7 5.2 13.5 5.2 8.4-.5 10.8-1.5c2.4-1 4.1-1.9 5.2-2.9 1.1-1 2.6-2.6 4.4-4.8h41.3c-3.6 12.5-10.7 22.6-21.4 30.3-10.8 7.7-23.5 11.5-38.2 11.5zm16.3-89.4c-4.5-3.6-9.8-5.5-15.9-5.5s-11.2 1.8-15.4 5.5c-4.2 3.6-6.8 8.4-7.8 14.2h46.7c-.6-5.8-3.2-10.6-7.6-14.2zm79.2 72c-11.5-11.6-17.3-27.1-17.3-46.4s5.8-34.8 17.3-46.3 26.5-17.3 44.8-17.3c15.2 0 28.1 3.8 38.6 11.3 10.6 7.5 17.6 18.3 21 32.3h-41.4c-3.6-7.4-9.4-11.2-17.5-11.2s-14.1 2.9-18.1 8.6c-3.9 5.7-5.9 13.3-5.9 22.7 0 9.4 2 16.9 5.9 22.7 3.9 5.7 9.7 8.6 17.3 8.6 4.8 0 8.5-.8 11.2-2.5 2.7-1.6 5.1-4.5 7.1-8.7h41.3c-3.4 13.4-10.5 24-21.2 31.9s-23.5 11.8-38.4 11.8c-18.3-.1-33.2-5.9-44.7-17.5zM808 160.6h13.6V193h-19.4c-14 0-24.8-3.1-32.5-9.3s-11.5-16.8-11.5-31.8v-51.8h-11.6V68.4h11.6V38h38.2v30.4h25v31.7h-25v51.8c0 5.8 3.9 8.7 11.6 8.7zm45.2 16.3c-12.6-11.8-18.9-27.2-18.9-46.4s6.3-34.6 18.8-46.1 28-17.3 46.4-17.3c18.5 0 33.9 5.8 46.3 17.3 12.4 11.5 18.6 26.9 18.6 46.1s-6.2 34.7-18.5 46.4c-12.4 11.8-27.8 17.6-46.2 17.6-18.4 0-33.9-5.9-46.5-17.6zm64.9-23c5.1-5.4 7.6-13.1 7.6-23.2s-2.6-17.8-7.8-23.1c-5.2-5.3-11.4-7.9-18.5-7.9s-13.3 2.6-18.4 7.9c-5.1 5.3-7.7 13-7.7 23.1s2.6 17.9 7.9 23.2c5.3 5.4 11.5 8 18.6 8 7.1 0 13.2-2.7 18.3-8zm100.3-85.5v23.2c8.9-16.4 20.8-24.6 35.7-24.6v38.9h-9.4c-8.8 0-15.4 2.1-19.8 6.3-4.4 4.2-6.6 11.5-6.6 21.9V193h-38.2V68.4h38.3zm93.5 122.1l-48.5-122.1h43.3l27.7 81.5 30.4-81.5h40l-79.5 184h-40l26.6-61.9z"/><path class="st0" d="M165.8 201.9c0 9.4-7.7 17-17 17H17c-9.4 0-17-7.7-17-17v-9.5c0-9.4 7.7-17 17-17h131.8c9.4 0 17 7.7 17 17v9.5z"/><path class="st0" d="M0 197.1h165.8v21.8H0z"/></svg>